<?xml version="1.0" standalone="no"?>
<!DOCTYPE svg PUBLIC "-//W3C//DTD SVG 20010904//EN"
 "http://www.w3.org/TR/2001/REC-SVG-20010904/DTD/svg10.dtd">
<svg version="1.0" xmlns="http://www.w3.org/2000/svg"
 width="225.000000pt" height="225.000000pt" viewBox="0 0 225.000000 225.000000"
 preserveAspectRatio="xMidYMid meet">

<g transform="translate(0.000000,225.000000) scale(0.100000,-0.100000)"
fill="#000000" stroke="none">
<path d="M34 2225 l-24 -24 2 -1082 3 -1081 24 -19 c22 -18 50 -19 818 -19
l794 0 24 25 25 24 0 418 0 417 -75 -74 -75 -74 0 -293 0 -293 -695 0 -695 0
0 975 0 975 695 0 695 0 0 -242 0 -242 75 74 75 74 0 219 0 218 -25 24 -24 25
-796 0 -796 0 -25 -25z"/>
<path d="M336 1898 c-21 -30 -20 -44 4 -68 19 -19 33 -20 515 -20 482 0 496 1
515 20 25 25 26 52 2 73 -17 15 -67 17 -520 17 l-501 0 -15 -22z"/>
<path d="M2030 1859 c-27 -8 -136 -111 -468 -442 -238 -238 -442 -447 -453
-465 -12 -18 -38 -90 -59 -160 -48 -156 -46 -162 51 -133 35 11 98 29 139 41
l75 22 444 441 c326 325 449 454 463 486 55 120 -62 248 -192 210z"/>
<path d="M333 1594 c-15 -24 -15 -29 -2 -53 l15 -26 509 0 509 0 15 26 c13 24
13 29 -2 53 l-17 26 -505 0 -505 0 -17 -26z"/>
<path d="M340 1300 c-24 -24 -25 -38 -4 -68 l15 -22 397 0 398 0 54 55 54 55
-447 0 c-434 0 -448 -1 -467 -20z"/>
<path d="M352 1008 c-49 -24 -36 -93 21 -103 17 -3 148 -5 291 -3 l258 3 19
50 c10 28 19 53 19 58 0 12 -582 7 -608 -5z"/>
<path d="M336 688 c-21 -30 -20 -44 4 -68 19 -19 33 -20 273 -20 l254 0 -1 55
-1 55 -257 0 c-254 0 -257 0 -272 -22z"/>
</g>
</svg>
